Coordinates
version=1
nRows=9
nColumns=24
inDegrees=yes

Units are S.I. units (second, meters, Newtons, ...)
Angles are in degrees.

endheader
time	pelvis_tilt	pelvis_list	pelvis_rotation	pelvis_tx	pelvis_ty	pelvis_tz	hip_flexion_r	hip_adduction_r	hip_rotation_r	knee_angle_r	ankle_angle_r	subtalar_angle_r	mtp_angle_r	hip_flexion_l	hip_adduction_l	hip_rotation_l	knee_angle_l	ankle_angle_l	subtalar_angle_l	mtp_angle_l	lumbar_extension	lumbar_bending	lumbar_rotation
      1.52033333	     -5.76412603	      4.28597511	     -0.72445193	      0.44726806	      0.89851034	      0.29029369	     20.50147052	     -7.65909994	     -8.34527325	    -69.07016284	      5.75017912	      7.28945428	      8.28185223	     17.01625623	      8.20260040	     -0.87033346	    -23.48596718	     12.11513313	     -5.27138945	      2.17253454	     -0.39963310	     -6.96746188	      3.68849689
      1.52450000	     -5.65729803	      4.14172264	     -0.54245916	      0.45223577	      0.89987943	      0.29008467	     20.96112844	     -7.51680733	     -8.44996148	    -68.53270865	      6.19837710	      7.10640821	      8.13161705	     16.25893282	      8.12590449	     -0.55570179	    -22.90971190	     12.02264215	     -5.34386469	      2.18460722	     -0.52370621	     -6.81821931	      3.25725967
      1.52866667	     -5.52563854	      3.97840498	     -0.35972627	      0.45720303	      0.90126871	      0.28988568	     21.37359170	     -7.35169698	     -8.56176862	    -67.93005638	      6.59322373	      6.89626209	      7.98858677	     15.47814410	      8.01909049	     -0.25492272	    -22.33961474	     11.95788784	     -5.37992190	      2.19409189	     -0.68066114	     -6.64256341	      2.90436399
      1.53283333	     -5.37827368	      3.80117669	     -0.17372894	      0.46215695	      0.90265414	      0.28967505	     21.75263800	     -7.17508734	     -8.68394504	    -67.27016483	      6.93833077	      6.66883636	      7.89886087	     14.68680623	      7.89049349	      0.03466482	    -21.77875027	     11.92012267	     -5.39236687	      2.19863975	     -0.85715508	     -6.42522942	      2.61179769
      1.53700000	     -5.25732145	      3.64459596	      0.03022308	      0.46707882	      0.90395298	      0.28943860	     22.15302917	     -7.02915763	     -8.81385942	    -66.58083679	      7.29970681	      6.44310308	      7.72635474	     13.92359088	      7.78863647	      0.37716801	    -21.20254367	     11.80300905	     -5.48523267	      2.20461570	     -1.00426496	     -6.25572819	      2.15277845
      1.54116667	     -5.11564272	      3.44901216	      0.23182945	      0.47198227	      0.90526501	      0.28923534	     22.50755343	     -6.82948095	     -8.94409011	    -65.81592148	      7.60006124	      6.17905070	      7.65255089	     13.16038653	      7.62540011	      0.66766587	    -20.66986446	     11.74800370	     -5.46456836	      2.20703850	     -1.18740459	     -6.03911819	      1.91540482
      1.54533333	     -4.96602169	      3.27523995	      0.43459570	      0.47690752	      0.90654741	      0.28900525	     22.84165538	     -6.66488446	     -9.08006779	    -65.01326909	      7.84328346	      5.90365686	      7.55071702	     12.37120959	      7.48677711	      0.98194682	    -20.09786058	     11.67711322	     -5.52112553	      2.20975367	     -1.35907924	     -5.83568117	      1.52182536
      1.54950000	     -4.84398245	      3.12888180	      0.65471051	      0.48179367	      0.90772175	      0.28871752	     23.20289453	     -6.54844344	     -9.23076998	    -64.19572297	      8.11185287	      5.63266045	      7.33168452	     11.61384456	      7.38387790	      1.34510259	    -19.51366819	     11.53513256	     -5.66341396	      2.21585096	     -1.50101751	     -5.64988589	      1.00662116
      1.55366667	     -4.69955220	      2.94258869	      0.86077253	      0.48668238	      0.90890987	      0.28849993	     23.51501727	     -6.36875891	     -9.36938891	    -63.29859378	      8.28635556	      5.31754048	      7.20610909	     10.85314345	      7.21144542	      1.62674915	    -18.97364790	     11.48792085	     -5.66559750	      2.22159361	     -1.67021634	     -5.42302902	      0.72164835
